<?xml version="1.0" encoding="utf-8"?>
<!-- Generator: Adobe Illustrator 27.7.0, SVG Export Plug-In . SVG Version: 6.00 Build 0)  -->
<svg version="1.1" id="Layer_1" xmlns="http://www.w3.org/2000/svg" xmlns:xlink="http://www.w3.org/1999/xlink" x="0px" y="0px"
	 viewBox="0 0 96 96" style="enable-background:new 0 0 96 96;" xml:space="preserve">
<style type="text/css">
	.st0{fill:#010101;}
	.st1{fill:#FFFFFF;}
</style>
<g id="Layer_18">
	<path class="st0" d="M76,96H20C9,96,0,87,0,76V20C0,9,9,0,20,0h56c11,0,20,9,20,20v56C96,87,87,96,76,96z"/>
	<path class="st1" d="M52.4,44.4l17.2-20h-4.1L50.6,41.7l-12-17.3H24.9L43,50.7l-18.1,21H29l15.8-18.3l12.6,18.3h13.8L52.4,44.4
		L52.4,44.4z M46.8,50.9L45,48.3L30.4,27.4h6.3l11.7,16.8l1.8,2.6l15.3,21.8h-6.3L46.8,50.9L46.8,50.9z"/>
</g>
</svg>
